<svg xmlns="http://www.w3.org/2000/svg" width="22" height="22" viewBox="0 0 22 22"><path d="M7,1A6,6,0,0,0,1,7V17a6,6,0,0,0,6,6H17a6,6,0,0,0,6-6V7a6,6,0,0,0-6-6ZM7,3H17a4,4,0,0,1,4,4V17a4,4,0,0,1-4,4H7a4,4,0,0,1-4-4V7A4,4,0,0,1,7,3Zm9.989,8.223A5.054,5.054,0,0,0,15.8,8.656a4.962,4.962,0,0,0-3.009-1.644,4.9,4.9,0,0,0-1.477,0,5,5,0,1,0,5.679,4.212Zm-1.978.294A3,3,0,1,1,11.6,8.99a2.989,2.989,0,0,1,2.688.984,3.057,3.057,0,0,1,.72,1.543ZM17.5,7.5a1,1,0,1,0-1-1A1,1,0,0,0,17.5,7.5Z" transform="translate(-1 -1)"/></svg>