<svg xmlns="http://www.w3.org/2000/svg" width="21.889" height="21.929" viewBox="0 0 21.889 21.929"><path d="M23,16.92A3,3,0,0,0,20.4,13.9a11.573,11.573,0,0,1-2.586-.646,3.045,3.045,0,0,0-1.344-.174,2.987,2.987,0,0,0-1.819.855l-.72.72A14.841,14.841,0,0,1,9.35,10.063l.726-.726a3.038,3.038,0,0,0,.707-1.156,2.992,2.992,0,0,0-.039-2.011,11.591,11.591,0,0,1-.644-2.6,3.02,3.02,0,0,0-.963-1.8A2.982,2.982,0,0,0,7.11,1h-3c-.088,0-.182,0-.273.012A3,3,0,0,0,1.125,4.277a20.517,20.517,0,0,0,3.216,9.1,20.172,20.172,0,0,0,6.3,6.306,20.525,20.525,0,0,0,9.086,3.231c.092.009.191.013.288.013A3,3,0,0,0,23,19.921Zm-2,0v3a1,1,0,0,1-1,1.008,18.528,18.528,0,0,1-8.263-2.912,18.228,18.228,0,0,1-5.7-5.694A18.549,18.549,0,0,1,3.115,4.084,1,1,0,0,1,4.022,3L7.11,3a1,1,0,0,1,.687.256,1.014,1.014,0,0,1,.323.608,13.506,13.506,0,0,0,.757,3.025.985.985,0,0,1,.01.658,1.049,1.049,0,0,1-.242.395L7.383,9.2a1,1,0,0,0-.162,1.2A16.823,16.823,0,0,0,13.6,16.782a1,1,0,0,0,1.195-.166l1.27-1.27a.984.984,0,0,1,.6-.279,1.036,1.036,0,0,1,.459.06,13.539,13.539,0,0,0,3.034.754.976.976,0,0,1,.615.355,1.03,1.03,0,0,1,.226.682Z" transform="translate(-1.113 -1)"/></svg>