<svg xmlns="http://www.w3.org/2000/svg" width="24" height="23" viewBox="0 0 24 23"><path d="M11,21a2,2,0,1,0-.586,1.414A2,2,0,0,0,11,21Zm11,0a2,2,0,1,0-.586,1.414A2,2,0,0,0,22,21ZM7.221,7h14.57L20.42,14.191a1.012,1.012,0,0,1-.332.568A1,1,0,0,1,19.4,15H9.666a1.016,1.016,0,0,1-.626-.2.991.991,0,0,1-.379-.6ZM1,2H4.18l.848,4.239A1,1,0,0,0,6,7H7.221l-.4-2H6A1,1,0,0,0,5,6a.983.983,0,0,0,.012.155.781.781,0,0,0,.017.084L6.7,14.586A3,3,0,0,0,9.694,17H19.4a2.971,2.971,0,0,0,2-.727,3.019,3.019,0,0,0,.985-1.683l1.6-8.4a1,1,0,0,0-.8-1.17A.9.9,0,0,0,23,5H6.82L5.98.8A1,1,0,0,0,5,0H1A1,1,0,0,0,1,2Z"/></svg>