<svg xmlns="http://www.w3.org/2000/svg" width="23.999" height="19.943" viewBox="0 0 23.999 19.943"><path d="M20.833,5.262a6.686,6.686,0,0,1-.616.7,1,1,0,0,0-.278.908A3.343,3.343,0,0,1,20,7.5c0,5.256-2.429,8.971-5.81,10.9a12.409,12.409,0,0,1-9.222,1.12,12.682,12.682,0,0,0,3.593-1.69,1,1,0,0,0-.156-1.741,8.351,8.351,0,0,1-4.769-4.593,8.383,8.383,0,0,1-.52-3.227,11.351,11.351,0,0,1,.278-2.182c.394.343.8.706,1.235,1.038A11.59,11.59,0,0,0,12.024,9.53a1,1,0,0,0,.976-1V7.519a3.509,3.509,0,0,1,.034-.533,3.48,3.48,0,0,1,6.072-1.8,1,1,0,0,0,1.033.3q.347-.1.695-.228Zm1.591-3.079a9.884,9.884,0,0,1-2.287,1.2,5.48,5.48,0,0,0-9.083,3.319,5.63,5.63,0,0,0-.054.8,9.589,9.589,0,0,1-5.15-1.97A9.87,9.87,0,0,1,3.816,3.421a1,1,0,0,0-1.394-.237.985.985,0,0,0-.335.409s-.132.3-.285.76c-.112.337-.241.775-.357,1.29a13.224,13.224,0,0,0-.326,2.571,10.381,10.381,0,0,0,.652,4,9.735,9.735,0,0,0,4.147,4.823A10.505,10.505,0,0,1,1.045,18a1,1,0,0,0-.53,1.873,14.926,14.926,0,0,0,14.666.261C19.221,17.833,22,13.434,22,7.5c0-.167-.008-.33-.023-.489a8.626,8.626,0,0,0,2-3.781,1,1,0,0,0-1.55-1.047Z" transform="translate(-0.001 -1.99)"/></svg>